<svg xmlns="http://www.w3.org/2000/svg" viewBox="0 0 96 96">
  <defs>
    <linearGradient id="bg" x1="0" y1="0" x2="1" y2="1">
      <stop offset="0" stop-color="#e5e8fd" />
      <stop offset="1" stop-color="#adb8ff" />
    </linearGradient>
  </defs>
  <rect x="6" y="6" width="84" height="84" rx="18" fill="url(#bg)" />
  <circle cx="48" cy="48" r="13" fill="#6576dd" />
  <g fill="#495ac6">
    <rect x="45" y="20" width="6" height="10" rx="3" />
    <rect x="45" y="66" width="6" height="10" rx="3" />
    <rect x="20" y="45" width="10" height="6" rx="3" />
    <rect x="66" y="45" width="10" height="6" rx="3" />
    <rect x="28" y="28" width="8" height="6" rx="3" transform="rotate(-45 32 31)" />
    <rect x="60" y="60" width="8" height="6" rx="3" transform="rotate(-45 64 63)" />
    <rect x="28" y="62" width="8" height="6" rx="3" transform="rotate(45 32 65)" />
    <rect x="60" y="30" width="8" height="6" rx="3" transform="rotate(45 64 33)" />
  </g>
</svg>
