<svg xmlns="http://www.w3.org/2000/svg" viewBox="0 0 96 96">
  <defs>
    <linearGradient id="bg" x1="0" y1="0" x2="1" y2="1">
      <stop offset="0" stop-color="#112218" />
      <stop offset="1" stop-color="#0a1510" />
    </linearGradient>
  </defs>
  <rect x="7" y="7" width="82" height="82" rx="16" fill="url(#bg)" stroke="#58f58a" stroke-width="2" />
  <circle cx="48" cy="48" r="12" fill="#7af0a2" />
  <g fill="#38b86a">
    <rect x="45" y="22" width="6" height="9" rx="2" />
    <rect x="45" y="65" width="6" height="9" rx="2" />
    <rect x="22" y="45" width="9" height="6" rx="2" />
    <rect x="65" y="45" width="9" height="6" rx="2" />
    <rect x="30" y="30" width="7" height="5" rx="2" transform="rotate(-45 33.5 32.5)" />
    <rect x="59" y="59" width="7" height="5" rx="2" transform="rotate(-45 62.5 61.5)" />
    <rect x="30" y="61" width="7" height="5" rx="2" transform="rotate(45 33.5 63.5)" />
    <rect x="59" y="32" width="7" height="5" rx="2" transform="rotate(45 62.5 34.5)" />
  </g>
</svg>
