<svg width="1600" height="900" viewBox="0 0 1600 900" xmlns="http://www.w3.org/2000/svg">
  <defs>
    <linearGradient id="sky" x1="0%" y1="0%" x2="0%" y2="100%">
      <stop offset="0%" stop-color="#0b1220"/>
      <stop offset="55%" stop-color="#1a2b49"/>
      <stop offset="100%" stop-color="#253c66"/>
    </linearGradient>
    <linearGradient id="city" x1="0%" y1="0%" x2="0%" y2="100%">
      <stop offset="0%" stop-color="#0f1726"/>
      <stop offset="100%" stop-color="#070a12"/>
    </linearGradient>
  </defs>
  <rect width="1600" height="900" fill="url(#sky)"/>
  <circle cx="1260" cy="170" r="70" fill="#f7f2d199"/>
  <rect y="540" width="1600" height="360" fill="url(#city)"/>
  <g fill="#111826">
    <rect x="70" y="360" width="140" height="540"/>
    <rect x="220" y="420" width="180" height="480"/>
    <rect x="430" y="300" width="220" height="600"/>
    <rect x="680" y="390" width="170" height="510"/>
    <rect x="870" y="260" width="250" height="640"/>
    <rect x="1150" y="340" width="190" height="560"/>
    <rect x="1360" y="410" width="170" height="490"/>
  </g>
  <g fill="#ffe08a">
    <rect x="95" y="390" width="14" height="20"/>
    <rect x="120" y="450" width="14" height="20"/>
    <rect x="260" y="470" width="16" height="22"/>
    <rect x="294" y="530" width="16" height="22"/>
    <rect x="480" y="360" width="18" height="24"/>
    <rect x="520" y="420" width="18" height="24"/>
    <rect x="570" y="510" width="18" height="24"/>
    <rect x="730" y="450" width="16" height="22"/>
    <rect x="945" y="340" width="18" height="24"/>
    <rect x="998" y="410" width="18" height="24"/>
    <rect x="1210" y="400" width="16" height="22"/>
    <rect x="1430" y="470" width="16" height="22"/>
  </g>
</svg>
